<?xml version="1.0" standalone="no"?>
<!DOCTYPE svg PUBLIC "-//W3C//DTD SVG 20010904//EN"
 "http://www.w3.org/TR/2001/REC-SVG-20010904/DTD/svg10.dtd">
<svg version="1.0" xmlns="http://www.w3.org/2000/svg"
 width="700.000000pt" height="700.000000pt" viewBox="0 0 700.000000 700.000000"
 preserveAspectRatio="xMidYMid meet">

<g transform="translate(0.000000,700.000000) scale(0.100000,-0.100000)"
fill="#000000" stroke="none">
<path d="M3450 5873 c-58 -40 -2146 -1838 -2157 -1857 -28 -49 -2 -110 55
-125 22 -7 164 -11 349 -11 l313 0 2 -861 3 -861 28 -24 c28 -23 32 -24 213
-24 l186 0 29 29 c39 40 39 82 0 122 -29 29 -30 29 -155 29 l-126 0 0 859 c0
830 -1 860 -19 882 -19 24 -20 24 -288 29 l-268 5 942 807 943 808 942 -808
943 -807 -268 -5 c-268 -5 -269 -5 -288 -29 -18 -22 -19 -52 -19 -882 l0 -859
-126 0 c-125 0 -126 0 -155 -29 -39 -40 -39 -82 0 -122 l29 -29 186 0 c181 0
185 1 213 24 l28 24 3 861 2 861 313 0 c327 0 376 5 402 43 20 29 19 80 -2
105 -10 11 -174 153 -365 317 l-348 297 0 418 0 418 -26 31 -26 31 -271 0
c-198 -1 -276 -4 -288 -13 -33 -25 -39 -55 -39 -192 l0 -135 -382 328 c-211
180 -394 335 -408 345 -31 22 -69 22 -100 0z m1360 -794 l0 -280 -23 18 c-13
10 -78 65 -145 122 l-122 105 0 158 0 158 145 0 145 0 0 -281z"/>
<path d="M3902 4600 c-145 -68 -257 -253 -313 -513 -59 -279 -20 -507 110
-637 54 -54 147 -104 212 -115 l39 -7 0 -219 0 -219 -39 0 c-32 0 -44 -6 -65
-31 l-26 -31 0 -371 c0 -241 4 -386 11 -412 7 -25 29 -58 58 -86 74 -74 159
-88 252 -42 35 19 64 43 84 71 l30 44 3 402 c2 381 2 404 -16 426 -12 15 -34
25 -63 29 l-44 6 0 214 0 213 55 17 c173 55 275 170 315 357 27 128 13 308
-40 487 -85 294 -230 447 -425 447 -63 0 -85 -5 -138 -30z m205 -167 c48 -22
115 -116 152 -212 65 -168 91 -411 56 -529 -35 -117 -122 -182 -256 -190 -152
-9 -252 49 -299 173 -66 178 17 578 152 722 49 52 130 67 195 36z m-27 -2024
c0 -306 -4 -339 -38 -339 -40 0 -42 13 -42 332 l0 308 40 0 40 0 0 -301z"/>
<path d="M2533 4536 c-17 -8 -36 -24 -43 -35 -7 -15 -10 -153 -8 -469 l3 -447
33 -67 c56 -114 161 -185 288 -196 l64 -5 0 -213 0 -214 -39 0 c-32 0 -44 -6
-65 -31 l-26 -31 0 -371 c0 -241 4 -386 11 -412 7 -25 29 -58 58 -86 74 -74
159 -88 252 -41 35 18 64 42 84 70 l30 44 3 402 c2 381 2 404 -16 426 -12 15
-34 25 -63 29 l-44 6 -3 211 -2 211 69 5 c93 7 165 42 230 113 92 101 91 97
91 614 l0 448 -26 24 -26 24 -411 2 c-335 2 -418 0 -444 -11z m732 -541 c0
-414 1 -406 -72 -462 -36 -28 -38 -28 -202 -31 -198 -4 -221 0 -268 41 -63 55
-63 57 -63 462 l0 365 303 -2 302 -3 0 -370z m-265 -1593 c0 -319 -2 -332 -42
-332 -34 0 -38 33 -38 339 l0 301 40 0 40 0 0 -308z"/>
</g>
</svg>
